# xmcd CD database file
#
# Track frame offsets:
#	150
#	15617
#	33672
#	49858
#	65629
#	78059
#	92234
#	102824
#	111883
#	126067
#	138139
#	151552
#	164492
#	174118
#	183284
#	195275
#	207981
#	240151
#	254820
#	272619
#	288586
#	301501
#	313672
#	330640
#
# Disc length: 4587 seconds
#
# Revision: 0
# Processed by: cddbd v1.5.1PL0 Copyright (c) Steve Scherf et al.
# Submitted via: CDex 1.50
#
DISCID=3911e918
DTITLE=Michael Parks - The Best Of Michael Parks
DYEAR=1900
DGENRE=Country
TTITLE0=Wayfarin' Stranger
TTITLE1=Oklahoma Hills
TTITLE2=Pretty Piece Of Paper
TTITLE3=Midnight Wind
TTITLE4=San Antonio Rose
TTITLE5=Soldier's Last Letter
TTITLE6=Ride 'Em Cowboy
TTITLE7=Won,t You Ride In My Little Red Wagon
TTITLE8=Softly And Tenderly
TTITLE9=Sneakin' In The Back Door Of Love
TTITLE10=California's Fine
TTITLE11=Sunshine Showers
TTITLE12=Long Lonesome Highway
TTITLE13=Big "T" Water
TTITLE14=Yonder Comes The Blues
TTITLE15=I Think Of You
TTITLE16=Re - Enlistment Blues
TTITLE17=Beautiful Means You
TTITLE18=Sally ( Was A Gentle Woman )
TTITLE19=I Was Born In Kentucky
TTITLE20=Lost And Found
TTITLE21=Look Down That Lonesome Road
TTITLE22=There's Been A Change In Me
TTITLE23=Sing That Song Again
EXTD=
EXTT0=
EXTT1=
EXTT2=
EXTT3=
EXTT4=
EXTT5=
EXTT6=
EXTT7=
EXTT8=
EXTT9=
EXTT10=
EXTT11=
EXTT12=
EXTT13=
EXTT14=
EXTT15=
EXTT16=
EXTT17=
EXTT18=
EXTT19=
EXTT20=
EXTT21=
EXTT22=
EXTT23=
PLAYORDER=
